<svg xmlns="http://www.w3.org/2000/svg" viewBox="0 0 120 120" role="img">
  <title>Partly cloudy weather icon</title>
  <circle cx="48" cy="43" r="24" fill="#f7c948"></circle>
  <g stroke="#222222" stroke-width="5" stroke-linecap="round">
    <line x1="48" y1="8" x2="48" y2="20"></line>
    <line x1="48" y1="66" x2="48" y2="78"></line>
    <line x1="13" y1="43" x2="25" y2="43"></line>
    <line x1="71" y1="43" x2="83" y2="43"></line>
    <line x1="23" y1="18" x2="31" y2="26"></line>
    <line x1="65" y1="60" x2="73" y2="68"></line>
    <line x1="73" y1="18" x2="65" y2="26"></line>
    <line x1="31" y1="60" x2="23" y2="68"></line>
  </g>
  <path d="M39 83h42c12 0 22-9 22-21s-10-21-22-21c-5 0-10 2-14 5-6-10-17-16-29-13-13 3-22 14-22 27 0 13 10 23 23 23z" fill="#d9d2c3" stroke="#222222" stroke-width="5" stroke-linejoin="round"></path>
  <g stroke="#222222" stroke-width="4" stroke-linecap="round">
    <line x1="42" y1="96" x2="42" y2="96"></line>
    <line x1="56" y1="96" x2="56" y2="96"></line>
    <line x1="70" y1="96" x2="70" y2="96"></line>
    <line x1="84" y1="96" x2="84" y2="96"></line>
  </g>
</svg>